PathFileType	4	(X/Y/Z)	 1.8Hz3min.trc
DataRate	CameraRate	NumFrames	NumMarkers	Units	OrigDataRate	OrigDataStartFrame	OrigNumFrames
200	200	9	39	m	200	876	1000
Frame#	Time	C7			LSH			RSH			MAN			RASI			LASI			HIPR			HIPL			RPSI			LPSI			COX			RTHI1			RTHI2			RTHI3			RTHI4			RLKN			RMKN			RSHA1			RSHA2			RSHA3			RSHA4			RHEEL			RMET5			RMET1			RTOE			LTHI1			LTHI2			LTHI3			LTHI4			LLKN			LMKN			LSHA1			LSHA2			LSHA3			LSHA4			LHEEL			LMET5			LMET1			LTOE			
		X1	Y1	Z1	X2	Y2	Z2	X3	Y3	Z3	X4	Y4	Z4	X5	Y5	Z5	X6	Y6	Z6	X7	Y7	Z7	X8	Y8	Z8	X9	Y9	Z9	X10	Y10	Z10	X11	Y11	Z11	X12	Y12	Z12	X13	Y13	Z13	X14	Y14	Z14	X15	Y15	Z15	X16	Y16	Z16	X17	Y17	Z17	X18	Y18	Z18	X19	Y19	Z19	X20	Y20	Z20	X21	Y21	Z21	X22	Y22	Z22	X23	Y23	Z23	X24	Y24	Z24	X25	Y25	Z25	X26	Y26	Z26	X27	Y27	Z27	X28	Y28	Z28	X29	Y29	Z29	X30	Y30	Z30	X31	Y31	Z31	X32	Y32	Z32	X33	Y33	Z33	X34	Y34	Z34	X35	Y35	Z35	X36	Y36	Z36	X37	Y37	Z37	X38	Y38	Z38	X39	Y39	Z39	
876	4.3800	-0.216671	1.587270	-0.527682	-0.171132	1.577148	-0.707179	-0.176154	1.584804	-0.347319	-0.071918	1.532021	-0.534702	-0.061448	1.073311	-0.411539	-0.069660	1.070715	-0.652772	-0.136052	1.149989	-0.363340	-0.141803	1.138766	-0.693499	-0.234227	1.138560	-0.480345	-0.237970	1.140648	-0.569457	-0.234274	1.142667	-0.522115	-0.159145	0.889970	-0.329716	-0.152283	0.830886	-0.324442	-0.087301	0.836354	-0.324039	-0.086927	0.897803	-0.331070	-0.155618	0.562945	-0.349949	-0.138595	0.547585	-0.469317	-0.227485	0.445718	-0.323148	-0.237780	0.404766	-0.329613	-0.177545	0.396785	-0.327561	-0.171160	0.436247	-0.324003	-0.289985	0.182939	-0.400413	-0.169733	0.065020	-0.337506	-0.115488	0.067555	-0.402263	-0.091225	0.050644	-0.396600	-0.175355	0.887217	-0.721188	-0.160626	0.827872	-0.730475	-0.097126	0.838480	-0.736059	-0.102962	0.898011	-0.728035	-0.169197	0.560601	-0.701998	-0.125407	0.552811	-0.585614	-0.239885	0.427753	-0.708364	-0.248716	0.388986	-0.701032	-0.188931	0.379095	-0.718586	-0.188549	0.423100	-0.724322	-0.290763	0.173739	-0.630914	-0.175688	0.058680	-0.709929	-0.117406	0.065079	-0.652288	-0.097836	0.049441	-0.664240	
877	4.3850	-0.216637	1.590577	-0.528000	-0.171011	1.580579	-0.707346	-0.176003	1.588359	-0.347710	-0.071842	1.535280	-0.535004	-0.060789	1.076527	-0.411962	-0.068690	1.073910	-0.653106	-0.135402	1.153472	-0.363870	-0.140687	1.142238	-0.693933	-0.233600	1.142251	-0.480949	-0.237230	1.144300	-0.570049	-0.233531	1.146421	-0.522718	-0.158814	0.893449	-0.329969	-0.152126	0.834354	-0.324640	-0.087118	0.839624	-0.324392	-0.086577	0.901052	-0.331502	-0.155787	0.566148	-0.350168	-0.138289	0.550740	-0.469432	-0.227307	0.448735	-0.323271	-0.237493	0.407757	-0.329754	-0.177237	0.399923	-0.327658	-0.170952	0.439397	-0.324089	-0.288972	0.185274	-0.400771	-0.167762	0.068673	-0.337236	-0.113173	0.071787	-0.401604	-0.088671	0.054974	-0.395879	-0.174861	0.890544	-0.721607	-0.160541	0.831081	-0.730699	-0.096931	0.841201	-0.735966	-0.102359	0.900767	-0.728084	-0.170189	0.563590	-0.701577	-0.126994	0.555876	-0.584968	-0.239980	0.430244	-0.708574	-0.248605	0.391414	-0.701313	-0.188636	0.381882	-0.718515	-0.188530	0.425899	-0.724249	-0.289223	0.175253	-0.631074	-0.173122	0.062163	-0.711315	-0.114498	0.068863	-0.654360	-0.094858	0.053442	-0.666618	
878	4.3900	-0.216578	1.593616	-0.528320	-0.170860	1.583729	-0.707533	-0.175827	1.591634	-0.348082	-0.071730	1.538258	-0.535309	-0.060216	1.079436	-0.412423	-0.067839	1.076758	-0.653422	-0.134774	1.156625	-0.364368	-0.139627	1.145316	-0.694408	-0.233061	1.145660	-0.481582	-0.236547	1.147652	-0.570662	-0.232877	1.149886	-0.523339	-0.158468	0.896623	-0.330216	-0.151892	0.837521	-0.324814	-0.086870	0.842667	-0.324717	-0.086230	0.904075	-0.331927	-0.155782	0.569080	-0.350362	-0.137740	0.553654	-0.469491	-0.227132	0.451584	-0.323471	-0.237263	0.410597	-0.329984	-0.177006	0.402819	-0.327792	-0.170764	0.442298	-0.324198	-0.288121	0.187352	-0.401331	-0.165880	0.072224	-0.336987	-0.110831	0.076067	-0.400883	-0.086066	0.059399	-0.395105	-0.174373	0.893497	-0.722050	-0.160422	0.833930	-0.730952	-0.096713	0.843615	-0.735903	-0.101765	0.903204	-0.728161	-0.170916	0.566338	-0.701184	-0.128386	0.558766	-0.584336	-0.239943	0.432628	-0.708804	-0.248443	0.393756	-0.701614	-0.188309	0.384457	-0.718388	-0.188358	0.428523	-0.724113	-0.287864	0.176435	-0.631097	-0.170464	0.065806	-0.712819	-0.111494	0.072859	-0.656424	-0.091682	0.057730	-0.668914	
879	4.3950	-0.216496	1.596392	-0.528641	-0.170682	1.586595	-0.707745	-0.175632	1.594625	-0.348434	-0.071584	1.540964	-0.535618	-0.059726	1.082062	-0.412910	-0.067104	1.079263	-0.653720	-0.134180	1.159459	-0.364832	-0.138626	1.148012	-0.694912	-0.232607	1.148776	-0.482238	-0.235928	1.150684	-0.571283	-0.232315	1.153044	-0.523979	-0.158106	0.899510	-0.330455	-0.151576	0.840414	-0.324965	-0.086553	0.845496	-0.325023	-0.085877	0.906889	-0.332354	-0.155647	0.571772	-0.350536	-0.137016	0.556325	-0.469505	-0.226969	0.454275	-0.323769	-0.237086	0.413305	-0.330315	-0.176846	0.405513	-0.327962	-0.170606	0.444979	-0.324330	-0.287330	0.189185	-0.401978	-0.164095	0.075597	-0.336775	-0.108535	0.080237	-0.400132	-0.083508	0.063721	-0.394291	-0.173879	0.896094	-0.722510	-0.160248	0.836436	-0.731229	-0.096457	0.845732	-0.735866	-0.101178	0.905343	-0.728253	-0.171417	0.568855	-0.700827	-0.129591	0.561484	-0.583735	-0.239802	0.434897	-0.709014	-0.248227	0.395998	-0.701897	-0.187933	0.386896	-0.718216	-0.188073	0.430952	-0.723924	-0.286637	0.177362	-0.631073	-0.167743	0.069479	-0.714327	-0.108477	0.076918	-0.658392	-0.088442	0.062106	-0.671061	
880	4.4000	-0.216391	1.598911	-0.528967	-0.170480	1.589175	-0.707986	-0.175425	1.597329	-0.348766	-0.071410	1.543410	-0.535928	-0.059322	1.084425	-0.413405	-0.066480	1.081434	-0.653996	-0.133643	1.161991	-0.365261	-0.137692	1.150336	-0.695437	-0.232232	1.151588	-0.482919	-0.235370	1.153396	-0.571906	-0.231843	1.155886	-0.524640	-0.157732	0.902107	-0.330688	-0.151183	0.843033	-0.325098	-0.086163	0.848112	-0.325323	-0.085515	0.909488	-0.332787	-0.155421	0.574251	-0.350695	-0.136177	0.558761	-0.469492	-0.226829	0.456811	-0.324183	-0.236950	0.415863	-0.330764	-0.176737	0.408014	-0.328159	-0.170478	0.447468	-0.324489	-0.286542	0.190820	-0.402655	-0.162416	0.078737	-0.336617	-0.106338	0.084164	-0.399397	-0.081077	0.067813	-0.393474	-0.173376	0.898353	-0.722981	-0.160008	0.838615	-0.731525	-0.096149	0.847582	-0.735851	-0.100593	0.907199	-0.728359	-0.171748	0.571151	-0.700517	-0.130646	0.564016	-0.583178	-0.239581	0.437033	-0.709167	-0.247953	0.398113	-0.702128	-0.187520	0.389159	-0.718028	-0.187707	0.433200	-0.723671	-0.285507	0.178120	-0.631099	-0.164999	0.073049	-0.715736	-0.105533	0.080892	-0.660184	-0.085257	0.066383	-0.672996	
881	4.4050	-0.216261	1.601177	-0.529299	-0.170250	1.591482	-0.708257	-0.175209	1.599744	-0.349077	-0.071214	1.545602	-0.536243	-0.059001	1.086545	-0.413899	-0.065958	1.083288	-0.654256	-0.133183	1.164238	-0.365660	-0.136834	1.152315	-0.695969	-0.231938	1.154105	-0.483617	-0.234874	1.155779	-0.572536	-0.231458	1.158405	-0.525318	-0.157342	0.904444	-0.330905	-0.150723	0.845394	-0.325217	-0.085729	0.850511	-0.325641	-0.085147	0.911871	-0.333225	-0.155132	0.576535	-0.350840	-0.135295	0.560970	-0.469454	-0.226707	0.459182	-0.324704	-0.236828	0.418256	-0.331318	-0.176654	0.410346	-0.328377	-0.170376	0.449786	-0.324671	-0.285721	0.192303	-0.403341	-0.160842	0.081613	-0.336514	-0.104281	0.087776	-0.398723	-0.078825	0.071584	-0.392694	-0.172852	0.900289	-0.723465	-0.159695	0.840486	-0.731836	-0.095780	0.849183	-0.735847	-0.099997	0.908803	-0.728477	-0.171970	0.573234	-0.700266	-0.131585	0.566355	-0.582679	-0.239308	0.439021	-0.709248	-0.247631	0.400079	-0.702295	-0.187071	0.391297	-0.717852	-0.187325	0.435312	-0.723404	-0.284461	0.178782	-0.631241	-0.162280	0.076405	-0.716958	-0.102734	0.084660	-0.661708	-0.082220	0.070437	-0.674628	
882	4.4100	-0.216101	1.603197	-0.529639	-0.169993	1.593510	-0.708560	-0.174993	1.601894	-0.349368	-0.070995	1.547551	-0.536558	-0.058763	1.088434	-0.414377	-0.065527	1.084842	-0.654502	-0.132818	1.166216	-0.366035	-0.136056	1.153973	-0.696494	-0.231714	1.156311	-0.484336	-0.234435	1.157845	-0.573161	-0.231148	1.160595	-0.526016	-0.156944	0.906531	-0.331108	-0.150222	0.847502	-0.325333	-0.085265	0.852702	-0.325984	-0.084775	0.914054	-0.333663	-0.154802	0.578631	-0.350979	-0.134401	0.562967	-0.469423	-0.226620	0.461381	-0.325273	-0.236712	0.420471	-0.331954	-0.176581	0.412497	-0.328612	-0.170281	0.451944	-0.324876	-0.284863	0.193661	-0.404021	-0.159368	0.084212	-0.336463	-0.102382	0.091027	-0.398142	-0.076768	0.074998	-0.391998	-0.172312	0.901925	-0.723954	-0.159304	0.842074	-0.732155	-0.095348	0.850552	-0.735846	-0.099399	0.910180	-0.728605	-0.172129	0.575104	-0.700080	-0.132446	0.568475	-0.582250	-0.239015	0.440833	-0.709267	-0.247280	0.401870	-0.702409	-0.186623	0.393284	-0.717719	-0.186940	0.437287	-0.723182	-0.283469	0.179384	-0.631525	-0.159627	0.079447	-0.717936	-0.100123	0.088134	-0.662871	-0.079383	0.074168	-0.675858	
883	4.4150	-0.215911	1.604975	-0.529987	-0.169707	1.595262	-0.708897	-0.174775	1.603753	-0.349643	-0.070755	1.549262	-0.536872	-0.058601	1.090111	-0.414829	-0.065172	1.086127	-0.654736	-0.132564	1.167935	-0.366397	-0.135371	1.155332	-0.697002	-0.231559	1.158213	-0.485067	-0.234071	1.159606	-0.573817	-0.230905	1.162460	-0.526726	-0.156546	0.908379	-0.331299	-0.149694	0.849371	-0.325454	-0.084779	0.854682	-0.326349	-0.084399	0.916029	-0.334093	-0.154444	0.580549	-0.351119	-0.133517	0.564764	-0.469415	-0.226546	0.463401	-0.325867	-0.236582	0.422504	-0.332634	-0.176493	0.414469	-0.328857	-0.170183	0.453929	-0.325099	-0.283976	0.194899	-0.404684	-0.157983	0.086530	-0.336450	-0.100644	0.093904	-0.397673	-0.074901	0.078043	-0.391407	-0.171748	0.903286	-0.724450	-0.158840	0.843392	-0.732479	-0.094857	0.851707	-0.735840	-0.098794	0.911342	-0.728733	-0.172250	0.576758	-0.699965	-0.133232	0.570361	-0.581896	-0.238729	0.442453	-0.709255	-0.246905	0.403459	-0.702482	-0.186163	0.395077	-0.717642	-0.186587	0.439104	-0.723044	-0.282527	0.179945	-0.631954	-0.157071	0.082115	-0.718634	-0.097727	0.091244	-0.663609	-0.076772	0.077516	-0.676613	
884	4.4200	-0.215691	1.606516	-0.530346	-0.169387	1.596743	-0.709269	-0.174552	1.605322	-0.349903	-0.070487	1.550733	-0.537183	-0.058513	1.091576	-0.415246	-0.064879	1.087168	-0.654958	-0.132435	1.169410	-0.366754	-0.134791	1.156415	-0.697487	-0.231466	1.159818	-0.485808	-0.233765	1.161066	-0.574510	-0.230723	1.164010	-0.527444	-0.156155	0.909993	-0.331481	-0.149161	0.851003	-0.325586	-0.084294	0.856446	-0.326731	-0.084030	0.917787	-0.334502	-0.154061	0.582278	-0.351264	-0.132654	0.566371	-0.469442	-0.226468	0.465218	-0.326465	-0.236424	0.424322	-0.333323	-0.176371	0.416255	-0.329108	-0.170057	0.455744	-0.325340	-0.283084	0.196030	-0.405336	-0.156667	0.088589	-0.336476	-0.099048	0.096416	-0.397323	-0.073207	0.080734	-0.390928	-0.171173	0.904392	-0.724955	-0.158320	0.844458	-0.732804	-0.094315	0.852669	-0.735827	-0.098190	0.912303	-0.728858	-0.172349	0.578197	-0.699919	-0.133959	0.571998	-0.581620	-0.238460	0.443858	-0.709237	-0.246517	0.404821	-0.702540	-0.185711	0.396690	-0.717630	-0.186293	0.440739	-0.722965	-0.281639	0.180466	-0.632521	-0.154623	0.084382	-0.719042	-0.095570	0.093944	-0.663886	-0.074396	0.080437	-0.676847	
